<svg viewBox="0 0 1496 400" xmlns="http://www.w3.org/2000/svg"><g><g><g><g><g><line x1="59.98000144958496" y1="378.6199998855591" x2="54.98000144958496" y2="378.6199998855591" style="visibility: inherit;" fill="rgb(0, 0, 0)" stroke="rgb(204, 204, 204)" stroke-width="1px"></line><line x1="59.98000144958496" y1="347.06833322842914" x2="54.98000144958496" y2="347.06833322842914" style="visibility: inherit;" fill="rgb(0, 0, 0)" stroke="rgb(204, 204, 204)" stroke-width="1px"></line><line x1="59.98000144958496" y1="315.51666657129925" x2="54.98000144958496" y2="315.51666657129925" style="visibility: inherit;" fill="rgb(0, 0, 0)" stroke="rgb(204, 204, 204)" stroke-width="1px"></line><line x1="59.98000144958496" y1="283.9649999141693" x2="54.98000144958496" y2="283.9649999141693" style="visibility: inherit;" fill="rgb(0, 0, 0)" stroke="rgb(204, 204, 204)" stroke-width="1px"></line><line x1="59.98000144958496" y1="252.4133332570394" x2="54.98000144958496" y2="252.4133332570394" style="visibility: inherit;" fill="rgb(0, 0, 0)" stroke="rgb(204, 204, 204)" stroke-width="1px"></line><line x1="59.98000144958496" y1="220.86166659990948" x2="54.98000144958496" y2="220.86166659990948" style="visibility: inherit;" fill="rgb(0, 0, 0)" stroke="rgb(204, 204, 204)" stroke-width="1px"></line><line x1="59.98000144958496" y1="189.30999994277957" x2="54.98000144958496" y2="189.30999994277957" style="visibility: inherit;" fill="rgb(0, 0, 0)" stroke="rgb(204, 204, 204)" stroke-width="1px"></line><line x1="59.98000144958496" y1="157.75833328564966" x2="54.98000144958496" y2="157.75833328564966" style="visibility: inherit;" fill="rgb(0, 0, 0)" stroke="rgb(204, 204, 204)" stroke-width="1px"></line><line x1="59.98000144958496" y1="126.20666662851974" x2="54.98000144958496" y2="126.20666662851974" style="visibility: inherit;" fill="rgb(0, 0, 0)" stroke="rgb(204, 204, 204)" stroke-width="1px"></line><line x1="59.98000144958496" y1="94.65499997138983" x2="54.98000144958496" y2="94.65499997138983" style="visibility: inherit;" fill="rgb(0, 0, 0)" stroke="rgb(204, 204, 204)" stroke-width="1px"></line><line x1="59.98000144958496" y1="63.103333314259885" x2="54.98000144958496" y2="63.103333314259885" style="visibility: inherit;" fill="rgb(0, 0, 0)" stroke="rgb(204, 204, 204)" stroke-width="1px"></line><line x1="59.98000144958496" y1="31.551666657129942" x2="54.98000144958496" y2="31.551666657129942" style="visibility: inherit;" fill="rgb(0, 0, 0)" stroke="rgb(204, 204, 204)" stroke-width="1px"></line><line x1="59.98000144958496" y1="0" x2="54.98000144958496" y2="0" style="visibility: inherit;" fill="rgb(0, 0, 0)" stroke="rgb(204, 204, 204)" stroke-width="1px"></line></g><g transform="translate(49.98000144958496, 0)"><text style="text-anchor: end; visibility: hidden; font-family: &quot;Helvetica Neue&quot;, sans-serif; font-size: 12px; font-weight: 200;" x="0" y="378.6199998855591" dx="0em" dy="0.3em" fill="rgb(50, 49, 63)" stroke="none" stroke-width="1px">-0.05</text><text style="text-anchor: end; visibility: inherit; font-family: &quot;Helvetica Neue&quot;, sans-serif; font-size: 12px; font-weight: 200;" x="0" y="347.06833322842914" dx="0em" dy="0.3em" fill="rgb(50, 49, 63)" stroke="none" stroke-width="1px">0</text><text style="text-anchor: end; visibility: inherit; font-family: &quot;Helvetica Neue&quot;, sans-serif; font-size: 12px; font-weight: 200;" x="0" y="315.51666657129925" dx="0em" dy="0.3em" fill="rgb(50, 49, 63)" stroke="none" stroke-width="1px">0.05</text><text style="text-anchor: end; visibility: inherit; font-family: &quot;Helvetica Neue&quot;, sans-serif; font-size: 12px; font-weight: 200;" x="0" y="283.9649999141693" dx="0em" dy="0.3em" fill="rgb(50, 49, 63)" stroke="none" stroke-width="1px">0.1</text><text style="text-anchor: end; visibility: inherit; font-family: &quot;Helvetica Neue&quot;, sans-serif; font-size: 12px; font-weight: 200;" x="0" y="252.4133332570394" dx="0em" dy="0.3em" fill="rgb(50, 49, 63)" stroke="none" stroke-width="1px">0.15</text><text style="text-anchor: end; visibility: inherit; font-family: &quot;Helvetica Neue&quot;, sans-serif; font-size: 12px; font-weight: 200;" x="0" y="220.86166659990948" dx="0em" dy="0.3em" fill="rgb(50, 49, 63)" stroke="none" stroke-width="1px">0.2</text><text style="text-anchor: end; visibility: inherit; font-family: &quot;Helvetica Neue&quot;, sans-serif; font-size: 12px; font-weight: 200;" x="0" y="189.30999994277957" dx="0em" dy="0.3em" fill="rgb(50, 49, 63)" stroke="none" stroke-width="1px">0.25</text><text style="text-anchor: end; visibility: inherit; font-family: &quot;Helvetica Neue&quot;, sans-serif; font-size: 12px; font-weight: 200;" x="0" y="157.75833328564966" dx="0em" dy="0.3em" fill="rgb(50, 49, 63)" stroke="none" stroke-width="1px">0.3</text><text style="text-anchor: end; visibility: inherit; font-family: &quot;Helvetica Neue&quot;, sans-serif; font-size: 12px; font-weight: 200;" x="0" y="126.20666662851974" dx="0em" dy="0.3em" fill="rgb(50, 49, 63)" stroke="none" stroke-width="1px">0.35</text><text style="text-anchor: end; visibility: inherit; font-family: &quot;Helvetica Neue&quot;, sans-serif; font-size: 12px; font-weight: 200;" x="0" y="94.65499997138983" dx="0em" dy="0.3em" fill="rgb(50, 49, 63)" stroke="none" stroke-width="1px">0.4</text><text style="text-anchor: end; visibility: inherit; font-family: &quot;Helvetica Neue&quot;, sans-serif; font-size: 12px; font-weight: 200;" x="0" y="63.103333314259885" dx="0em" dy="0.3em" fill="rgb(50, 49, 63)" stroke="none" stroke-width="1px">0.45</text><text style="text-anchor: end; visibility: inherit; font-family: &quot;Helvetica Neue&quot;, sans-serif; font-size: 12px; font-weight: 200;" x="0" y="31.551666657129942" dx="0em" dy="0.3em" fill="rgb(50, 49, 63)" stroke="none" stroke-width="1px">0.5</text><text style="text-anchor: end; visibility: hidden; font-family: &quot;Helvetica Neue&quot;, sans-serif; font-size: 12px; font-weight: 200;" x="0" y="0" dx="0em" dy="0.3em" fill="rgb(50, 49, 63)" stroke="none" stroke-width="1px">0.55</text></g><line x1="59.98000144958496" y1="0" x2="59.98000144958496" y2="378.6199998855591" fill="rgb(0, 0, 0)" stroke="rgb(204, 204, 204)" stroke-width="1px"></line></g></g><g transform="translate(59, 0)" clip-path="url(#clip_0)"><clipPath id="clip_0"><rect width="1436" height="378"></rect></clipPath><g><g><g><line x1="0" y1="0" x2="0" y2="378.6199998855591" fill="rgb(0, 0, 0)" stroke="rgb(60, 60, 60)" stroke-width="1px" opacity="0.25"></line><line x1="119.66833321253458" y1="0" x2="119.66833321253458" y2="378.6199998855591" fill="rgb(0, 0, 0)" stroke="rgb(60, 60, 60)" stroke-width="1px" opacity="0.25"></line><line x1="239.33666642506915" y1="0" x2="239.33666642506915" y2="378.6199998855591" fill="rgb(0, 0, 0)" stroke="rgb(60, 60, 60)" stroke-width="1px" opacity="0.25"></line><line x1="359.00499963760376" y1="0" x2="359.00499963760376" y2="378.6199998855591" fill="rgb(0, 0, 0)" stroke="rgb(60, 60, 60)" stroke-width="1px" opacity="0.25"></line><line x1="478.6733328501383" y1="0" x2="478.6733328501383" y2="378.6199998855591" fill="rgb(0, 0, 0)" stroke="rgb(60, 60, 60)" stroke-width="1px" opacity="0.25"></line><line x1="598.341666062673" y1="0" x2="598.341666062673" y2="378.6199998855591" fill="rgb(0, 0, 0)" stroke="rgb(60, 60, 60)" stroke-width="1px" opacity="0.25"></line><line x1="718.0099992752075" y1="0" x2="718.0099992752075" y2="378.6199998855591" fill="rgb(0, 0, 0)" stroke="rgb(60, 60, 60)" stroke-width="1px" opacity="0.25"></line><line x1="837.6783324877422" y1="0" x2="837.6783324877422" y2="378.6199998855591" fill="rgb(0, 0, 0)" stroke="rgb(60, 60, 60)" stroke-width="1px" opacity="0.25"></line><line x1="957.3466657002766" y1="0" x2="957.3466657002766" y2="378.6199998855591" fill="rgb(0, 0, 0)" stroke="rgb(60, 60, 60)" stroke-width="1px" opacity="0.25"></line><line x1="1077.0149989128113" y1="0" x2="1077.0149989128113" y2="378.6199998855591" fill="rgb(0, 0, 0)" stroke="rgb(60, 60, 60)" stroke-width="1px" opacity="0.25"></line><line x1="1196.683332125346" y1="0" x2="1196.683332125346" y2="378.6199998855591" fill="rgb(0, 0, 0)" stroke="rgb(60, 60, 60)" stroke-width="1px" opacity="0.25"></line><line x1="1316.3516653378804" y1="0" x2="1316.3516653378804" y2="378.6199998855591" fill="rgb(0, 0, 0)" stroke="rgb(60, 60, 60)" stroke-width="1px" opacity="0.25"></line><line x1="1436.019998550415" y1="0" x2="1436.019998550415" y2="378.6199998855591" fill="rgb(0, 0, 0)" stroke="rgb(60, 60, 60)" stroke-width="1px" opacity="0.25"></line></g><g><line x1="0" y1="378.6199998855591" x2="1436.019998550415" y2="378.6199998855591" fill="rgb(0, 0, 0)" stroke="rgb(60, 60, 60)" stroke-width="1px" opacity="0.25"></line><line x1="0" y1="347.06833322842914" x2="1436.019998550415" y2="347.06833322842914" fill="rgb(0, 0, 0)" stroke="rgb(60, 60, 60)" stroke-width="1px" opacity="0.25"></line><line x1="0" y1="315.51666657129925" x2="1436.019998550415" y2="315.51666657129925" fill="rgb(0, 0, 0)" stroke="rgb(60, 60, 60)" stroke-width="1px" opacity="0.25"></line><line x1="0" y1="283.9649999141693" x2="1436.019998550415" y2="283.9649999141693" fill="rgb(0, 0, 0)" stroke="rgb(60, 60, 60)" stroke-width="1px" opacity="0.25"></line><line x1="0" y1="252.4133332570394" x2="1436.019998550415" y2="252.4133332570394" fill="rgb(0, 0, 0)" stroke="rgb(60, 60, 60)" stroke-width="1px" opacity="0.25"></line><line x1="0" y1="220.86166659990948" x2="1436.019998550415" y2="220.86166659990948" fill="rgb(0, 0, 0)" stroke="rgb(60, 60, 60)" stroke-width="1px" opacity="0.25"></line><line x1="0" y1="189.30999994277957" x2="1436.019998550415" y2="189.30999994277957" fill="rgb(0, 0, 0)" stroke="rgb(60, 60, 60)" stroke-width="1px" opacity="0.25"></line><line x1="0" y1="157.75833328564966" x2="1436.019998550415" y2="157.75833328564966" fill="rgb(0, 0, 0)" stroke="rgb(60, 60, 60)" stroke-width="1px" opacity="0.25"></line><line x1="0" y1="126.20666662851974" x2="1436.019998550415" y2="126.20666662851974" fill="rgb(0, 0, 0)" stroke="rgb(60, 60, 60)" stroke-width="1px" opacity="0.25"></line><line x1="0" y1="94.65499997138983" x2="1436.019998550415" y2="94.65499997138983" fill="rgb(0, 0, 0)" stroke="rgb(60, 60, 60)" stroke-width="1px" opacity="0.25"></line><line x1="0" y1="63.103333314259885" x2="1436.019998550415" y2="63.103333314259885" fill="rgb(0, 0, 0)" stroke="rgb(60, 60, 60)" stroke-width="1px" opacity="0.25"></line><line x1="0" y1="31.551666657129942" x2="1436.019998550415" y2="31.551666657129942" fill="rgb(0, 0, 0)" stroke="rgb(60, 60, 60)" stroke-width="1px" opacity="0.25"></line><line x1="0" y1="0" x2="1436.019998550415" y2="0" fill="rgb(0, 0, 0)" stroke="rgb(60, 60, 60)" stroke-width="1px" opacity="0.25"></line></g></g></g><g><g><line x1="0" y1="347.06833322842914" x2="1436.019998550415" y2="347.06833322842914" fill="rgb(0, 0, 0)" stroke="rgb(153, 153, 153)" stroke-width="1.5px"></line></g></g><g><g><line x1="119.66833321253458" y1="0" x2="119.66833321253458" y2="378.6199998855591" fill="rgb(0, 0, 0)" stroke="rgb(153, 153, 153)" stroke-width="1.5px"></line></g></g><g><g><g><g><g><path style="fill: none;" stroke="rgb(0, 119, 187)" stroke-width="2px" d="M119.66833321253458,99.76527734125176L119.66833321253458,-2.9738788440775465L125.65174987316131,37.30233429216747L125.65174987316131,177.96836916436013L131.63516653378804,134.19814318371576L131.63516653378804,217.90291848271764L137.61858319441478,171.62589777182637L137.61858319441478,54.51135519288209L143.6019998550415,63.282381594138826L143.6019998550415,176.23016215499987L149.58541651566824,138.06332109369185L149.58541651566824,196.40711105208482L155.56883317629496,164.42420033543317L155.56883317629496,10.073117268905776L161.5522498369217,38.82494502316223L161.5522498369217,157.99766270657017L167.53566649754842,142.04965955682687L167.53566649754842,-13.806525333777472L173.51908315817516,24.69663215518881L173.51908315817516,153.649248388704L179.50249981880188,141.24111216301887L179.50249981880188,-2.6535553599302375L185.48591647942862,32.918697851541936L185.48591647942862,158.57805932563105L191.46933314005534,131.4244424119013L191.46933314005534,214.34215495958233L197.45274980068208,174.42403578811823L197.45274980068208,88.49929287632006L203.4361664613088,90.37551169592842L203.4361664613088,189.21284912730326L209.41958312193555,163.59833662617118L209.41958312193555,29.316375940144837L215.40299978256226,66.10863309213931L215.40299978256226,3.047162433135611L221.386416443189,40.909897525066526L221.386416443189,153.46060207310782L227.3698331038157,145.22696045171804L227.3698331038157,7.171117676627375L233.35324976444244,54.880694122958175L233.35324976444244,1.9424991825642337L239.33666642506915,41.7055092831194L239.33666642506915,163.79803768181412L245.3200830856959,140.25535970859428L245.3200830856959,203.53247969751413L251.30349974632261,164.8968631243814L251.30349974632261,218.25373759821363L257.2869164069494,181.77580800606216L257.2869164069494,116.97489777255987L263.2703330675761,114.75679214610852L263.2703330675761,187.66829193867017L269.2537497282028,156.87015319351437L269.2537497282028,224.8034537612716L275.23716638882956,190.41598869725252L275.23716638882956,74.21935495543715L281.22058304945625,89.32042298026028L281.22058304945625,192.17278181947376L287.203999710083,172.75132547595007L287.203999710083,53.83274182125825L293.18741637070974,91.25471339243114L293.18741637070974,1.339002837530984L299.1708330313365,48.354805996863604L299.1708330313365,167.50389092826708L305.1542496919632,156.58798901911413L305.1542496919632,97.60880234438406L311.1376663525899,106.40521884647359L311.1376663525899,201.46838452005395L317.12108301321666,170.7667129875875L317.12108301321666,226.48057572012604L323.1044996738434,196.6238173003527L323.1044996738434,76.95879973972973L329.0879163344701,96.97290017765266L329.0879163344701,182.79599781860327L335.07133299509684,159.70547132849183L335.07133299509684,233.55221879299472L341.0547496557236,202.5395972996428L341.0547496557236,62.5847746971661L347.0381663163503,90.19779485307771L347.0381663163503,179.1305845496648L353.021582976977,165.9978961649441L353.021582976977,121.69973723142317L359.00499963760376,125.18621980295734L359.00499963760376,213.07755680317834L364.98841629823045,192.90602372830688L364.98841629823045,54.8656450887882L370.97183295885725,98.61006740358926L370.97183295885725,-0.3336405637778057L376.95524961948394,61.741746646581475L376.95524961948394,50.634560448285185L382.9386662801107,85.24196035361445L382.9386662801107,188.14838255854394L388.92208294073737,168.43380847077714L388.92208294073737,238.2363334066513L394.90549960136417,207.8774993722569L394.90549960136417,119.15173474136202L400.88891626199086,135.2032801985284L400.88891626199086,96.0871208004744L406.8723329226176,114.03244047824649L406.8723329226176,205.89191453040578L412.8557495832443,191.46216405377584L412.8557495832443,87.9778608958913L418.8391662438711,110.27696533680705L418.8391662438711,204.7116102878966L424.8225829044978,191.08187239225273L424.8225829044978,87.97305911887685L430.8059995651245,123.07634717773061L430.8059995651245,26.55975430640717L436.7894162257512,75.24961641946624L436.7894162257512,183.43607510954303L442.772832886378,179.71949819408525L442.772832886378,95.4256432613837L448.7562495470047,117.65891983422426L448.7562495470047,206.97116029524324L454.7396662076314,184.8197135191873L454.7396662076314,249.62712691468036L460.7230828682582,211.23866257845512L460.7230828682582,255.47565644586723L466.7064995288849,215.06684728450583L466.7064995288849,264.54591878005135L472.6899161895116,227.914262477635L472.6899161895116,160.27100928657273L478.6733328501383,158.36833571067575L478.6733328501383,230.90807441214358L484.6567495107651,210.1674478158213L484.6567495107651,118.64262558817921L490.6401661713918,133.81374672252431L490.6401661713918,219.05238485351634L496.62358283201854,194.73777102020466L496.62358283201854,254.59928694536117L502.60699949264523,225.82160638673L502.60699949264523,120.34405293888511L508.59041615327203,136.18832277867466L508.59041615327203,220.18608212947368L514.5738328138988,196.0770359202771L514.5738328138988,256.4602975421736L520.5572494745254,218.15585536549236L520.5572494745254,269.7200114979104L526.5406661351522,227.6439349610023L526.5406661351522,267.1738147084036L532.5240827957789,225.53219980303516L532.5240827957789,270.6010548925804L538.5074994564056,227.92442369627537L538.5074994564056,275.5720104894692L544.4909161170324,241.2692757606882L544.4909161170324,109.83632376600224L550.4743327776591,141.14518900851382L550.4743327776591,71.6788362072287L556.4577494382859,109.46092190544141L556.4577494382859,200.58729261956478L562.4411660989125,195.22618972209085L562.4411660989125,129.25685617152243L568.4245827595392,150.56983939067956L568.4245827595392,135.2498324848362L574.407999420166,149.30980401330234L574.407999420166,222.25342355490469L580.3914160807927,201.56924251974476L580.3914160807927,259.62911152504756L586.3748327414195,224.15803655605671L586.3748327414195,268.4258376021849L592.3582494020462,239.26991384170682L592.3582494020462,122.36783321295383L598.341666062673,150.91646763943245L598.341666062673,85.66210081428574L604.3250827232997,119.90883452862124L604.3250827232997,210.5999173274341L610.3084993839263,196.19043745839136L610.3084993839263,250.96687808812402L616.2919160445531,220.6275553941842L616.2919160445531,265.61239153266774L622.2753327051798,237.71801855894506L622.2753327051798,150.65847786127821L628.2587493658066,160.99323021920063L628.2587493658066,228.46158933483304L634.2421660264333,215.6209897023424L634.2421660264333,137.0271142820816L640.2255826870601,158.36692237922378L640.2255826870601,145.47990051517877L646.2089993476868,165.7558298685403L646.2089993476868,119.28306246688135L652.1924160083134,143.61232422834752L652.1924160083134,221.71023282444833L658.1758326689402,204.58078456628994L658.1758326689402,261.122772980417L664.1592493295669,229.43163089246906L664.1592493295669,276.08007609612764L670.1426659901937,238.4322888667351L670.1426659901937,275.9881982837296L676.1260826508204,238.83231125554104L676.1260826508204,280.2714823758711L682.1094993114472,249.57762195133677L682.1094993114472,152.5111052550673L688.0929159720739,165.33243458871596L688.0929159720739,237.64360996809958L694.0763326327007,220.87210498609608L694.0763326327007,189.0701823254284L700.0597492933273,188.25928661651153L700.0597492933273,244.80177044924054L706.043165953954,221.352776038564L706.043165953954,263.8070087728978L712.0265826145808,232.17650572065727L712.0265826145808,277.7002547023453L718.0099992752075,249.7510241681455L718.0099992752075,149.64768443658835L723.9934159358343,165.7114492136924L723.9934159358343,220.39892572010953L729.9768325964609,207.83428429356383L729.9768325964609,259.3426885036334L735.9602492570876,231.64548300262905L735.9602492570876,273.4073222677466L741.9436659177145,248.06765930146798L741.9436659177145,141.4135646540371L747.9270825783412,165.88347385256571L747.9270825783412,159.49888518727644L753.9104992389679,171.75555117424315L753.9104992389679,238.4343227986366L759.8939158995946,219.29058733391588L759.8939158995946,269.39105638344284L765.8773325602214,238.47960719360321L765.8773325602214,278.85437475126656L771.8607492208481,244.03600822844703L771.8607492208481,285.12450920274057L777.8441658814747,248.32108719618915L777.8441658814747,279.3204583772688L783.8275825421015,244.96734040758787L783.8275825421015,284.57607544665825L789.8109992027283,248.90732379862672L789.8109992027283,279.24001182389424L795.7944158633551,250.67133910316275L795.7944158633551,204.8199064604751L801.7778325239817,208.34937511561034L801.7778325239817,138.69068639769523L807.7612491846085,161.91783098365835L807.7612491846085,232.47062652678088L813.7446658452352,217.41575398698706L813.7446658452352,268.1532387781562L819.7280825058618,246.26253848668952L819.7280825058618,173.4544523306723L825.7114991664886,191.07027129476467L825.7114991664886,126.30137826319907L831.6949158271154,155.6413387900985L831.6949158271154,216.87970686415719L837.6783324877422,218.29524853922254L837.6783324877422,130.38401175598747L843.6617491483688,158.809453378206L843.6617491483688,220.9024641738045L849.6451658089956,213.1458869495566L849.6451658089956,253.63416178727599L855.6285824696223,239.9790292036065L855.6285824696223,160.63772383239436L861.611999130249,176.91782818970637L861.611999130249,230.91803385710048L867.5954157908757,219.04379415345286L867.5954157908757,270.24945254284864L873.5788324515024,242.58849838447355L873.5788324515024,281.7569719092587L879.5622491121293,254.43192850495882L879.5622491121293,220.0793211954828L885.545665772756,213.32332442282694L885.545665772756,266.8102353616341L891.5290824333827,246.05583614062235L891.5290824333827,216.61906867201733L897.5124990940094,218.63027692846262L897.5124990940094,150.94510586092525L903.4959157546361,172.66129250272087L903.4959157546361,230.5533603192624L909.4793324152628,227.56021140293933L909.4793324152628,158.5919763080172L915.4627490758895,184.6210319277966L915.4627490758895,133.67191428652612L921.4461657365164,171.01700478044745L921.4461657365164,107.39740074740752L927.4295823971431,147.41309572557145L927.4295823971431,219.74481113283676L933.4129990577698,215.27014645500032L933.4129990577698,259.6670385473077L939.3964157183965,239.45836555398725L939.3964157183965,282.4083964224094L945.3798323790232,252.3418916377858L945.3798323790232,289.2288130317743L951.36324903965,265.14597175085925L951.36324903965,172.25021600288295L957.3466657002766,186.9497695173587L957.3466657002766,249.63162177111846L963.3300823609034,234.66566819772027L963.3300823609034,270.6328017172574L969.3134990215302,246.44889066150031L969.3134990215302,283.3798520128336L975.296915682157,262.06900368756027L975.296915682157,166.96771041615455L981.2803323427836,191.55237388771857L981.2803323427836,143.07550671800905L987.2637490034103,171.05704278224994L987.2637490034103,230.90491662910352L993.2471656640371,223.2216742185951L993.2471656640371,263.330180051487L999.2305823246637,243.4703209896592L999.2305823246637,278.14922967949445L1005.2139989852905,251.9698283324111L1005.2139989852905,289.6640624494646L1011.1974156459173,263.22411344380055L1011.1974156459173,234.0180888472754L1017.1808323065441,232.51359270467566L1017.1808323065441,170.79724628512577L1023.1642489671707,188.98513816319533L1023.1642489671707,236.83473849238598L1029.1476656277976,235.2014952428766L1029.1476656277976,167.92624471241422L1035.131082288424,190.819500357471L1035.131082288424,193.05449367848388L1041.1144989490508,203.12573114594232L1041.1144989490508,244.581255164909L1047.0979156096776,233.52167838229616L1047.0979156096776,270.0719941438552L1053.0813322703043,249.64686192479178L1053.0813322703043,272.8782668005197L1059.064748930931,256.3984157886998L1059.064748930931,207.258397693237L1065.0481655915578,217.82458305287452L1065.0481655915578,164.24527807354966L1071.0315822521845,190.8083752998596L1071.0315822521845,169.38028859304447L1077.0149989128113,189.2480759181806L1077.0149989128113,243.74615309980464L1082.998415573438,234.9711947867537L1082.998415573438,263.57677339503675L1088.9818322340648,252.33680593263938L1088.9818322340648,182.67771646308407L1094.9652488946915,198.41953399795545L1094.9652488946915,240.9126450112182L1100.9486655553183,232.86457760394762L1100.9486655553183,270.0720887004785L1106.932082215945,250.5371843843477L1106.932082215945,277.5844219292183L1112.9154988765717,260.0440213631513L1112.9154988765717,209.90835739264992L1118.8989155371985,214.4263529287369L1118.8989155371985,266.43779186402855L1124.882332197825,254.87767277111715L1124.882332197825,188.8371594152991L1130.8657488584518,203.0467189042397L1130.8657488584518,242.39276277440217L1136.8491655190785,234.69468009550013L1136.8491655190785,270.72438732294813L1142.8325821797052,251.33135224823502L1142.8325821797052,288.62345568713044L1148.815998840332,267.76636278521823L1148.815998840332,209.90000896355397L1154.7994155009587,215.42150208971842L1154.7994155009587,261.4001028387389L1160.7828321615855,249.07180827388743L1160.7828321615855,232.44184610402988L1166.7662488222122,233.61381380829462L1166.7662488222122,199.00717151758772L1172.749665482839,208.95540910857832L1172.749665482839,257.4986181552725L1178.7330821434657,251.59516007187796L1178.7330821434657,179.46727610792956L1184.7164988040925,204.52277877188914L1184.7164988040925,149.52142955345568L1190.6999154647192,180.0964643510536L1190.6999154647192,240.92051212542376L1196.683332125346,241.5095852500779L1196.683332125346,174.9588192569126L1202.6667487859727,195.02845339919602L1202.6667487859727,255.83504643474922L1208.6501654465994,243.7830769208868L1208.6501654465994,278.3443986894166L1214.633582107226,264.3571711056515L1214.633582107226,185.2497620102971L1220.6169987678527,202.94621631735797L1220.6169987678527,246.93718968253435L1226.6004154284794,242.40869966376914L1226.6004154284794,233.10410793517354L1232.5838320891062,237.44750693948512L1232.5838320891062,173.91451424970316L1238.567248749733,201.2782096803511L1238.567248749733,164.7162093759451L1244.5506654103597,197.09191348194568L1244.5506654103597,146.78171216666436L1250.5340820709864,181.13662556692108L1250.5340820709864,224.76475591284554L1256.5174987316132,233.28755578103357L1256.5174987316132,172.028513276083L1262.50091539224,195.5999289747407L1262.50091539224,234.32230104121814L1268.4843320528666,233.5812892504799L1268.4843320528666,255.80415556226814L1274.4677487134934,250.78154497643646L1274.4677487134934,207.8941362195906L1280.4511653741201,220.67842859851345L1280.4511653741201,213.54270104260806L1286.4345820347469,221.0437617923L1286.4345820347469,263.64136560317144L1292.4179986953736,253.62715539528733L1292.4179986953736,241.13602534248005L1298.4014153560004,240.09438027748553L1298.4014153560004,231.94667531445907L1304.384832016627,234.92815571256025L1304.384832016627,230.21174086893436L1310.3682486772536,234.03281566863106L1310.3682486772536,232.24230581093914" fill="none"></path></g><g><path style="fill: none;" stroke="rgb(0, 153, 136)" stroke-width="2px" d="M119.66833321253458,151.41813411069822L119.66833321253458,268.6449518423236L125.65174987316131,208.9516427226373L125.65174987316131,267.03188139791223L131.63516653378804,219.96494644671816L131.63516653378804,222.26275023980682L137.61858319441478,202.99061373597698L137.61858319441478,102.0073656954363L143.6019998550415,123.53935478003746L143.6019998550415,185.27833201936824L149.58541651566824,185.43587605022282L149.58541651566824,27.292887796486355L155.56883317629496,82.65822056671203L155.56883317629496,94.9101018115166L161.5522498369217,122.1516731187009L161.5522498369217,134.87819069077045L167.53566649754842,147.1391667098973L167.53566649754842,133.5876921259327L173.51908315817516,140.64387778199608L173.51908315817516,221.20438176057738L179.50249981880188,196.12782142285573L179.50249981880188,207.8534232260878L185.48591647942862,185.3703027667507L185.48591647942862,245.35616272794405L191.46933314005534,209.3315377402257L191.46933314005534,236.38037594947554L197.45274980068208,205.23393616137983L197.45274980068208,213.3169426985611L203.4361664613088,189.34121768499094L203.4361664613088,236.65624103391892L209.41958312193555,204.11168282600528L209.41958312193555,233.2484191794617L215.40299978256226,210.1215104758481L215.40299978256226,107.98203160435105L221.386416443189,134.40982863029234L221.386416443189,71.38465356489013L227.3698331038157,109.90580896274935L227.3698331038157,97.41164919017217L233.35324976444244,119.10541594953054L233.35324976444244,205.59694651735006L239.33666642506915,186.89341026349965L239.33666642506915,200.24060502322848L245.3200830856959,189.7649722242815L245.3200830856959,104.59774035659746L251.30349974632261,132.9311042894301L251.30349974632261,61.66779081447231L257.2869164069494,106.62128370373472L257.2869164069494,54.71152725785845L263.2703330675761,96.55251567526403L263.2703330675761,142.99032318266237L269.2537497282028,155.03317147380506L269.2537497282028,89.86473621838041L275.23716638882956,117.45408409916718L275.23716638882956,158.577009318249L281.22058304945625,156.4972664908149L281.22058304945625,216.94985985731842L287.203999710083,200.34237598691377L287.203999710083,102.11455383739371L293.18741637070974,128.34374888785948L293.18741637070974,108.4744131916305L299.1708330313365,128.4903903847546L299.1708330313365,167.270810268859L305.1542496919632,165.55528961532139L305.1542496919632,160.91677029826178L311.1376663525899,157.90112307882387L311.1376663525899,217.79217381010113L317.12108301321666,195.86810774006665L317.12108301321666,179.10446117310894L323.1044996738434,168.02993034814466L323.1044996738434,236.4103752014064L329.0879163344701,206.15525476981654L329.0879163344701,199.41715283900174L335.07133299509684,183.18553407149176L335.07133299509684,198.0158793016007L341.0547496557236,182.5351269009456L341.0547496557236,194.579889917696L347.0381663163503,178.0989948504844L347.0381663163503,229.91089687309733L353.021582976977,208.1189981963849L353.021582976977,106.78052716308969L359.00499963760376,138.3366215713498L359.00499963760376,-0.6224220274443724L364.98841629823045,64.81935023753937L364.98841629823045,100.47520667159262L370.97183295885725,124.59415365192831L370.97183295885725,150.48049216826882L376.95524961948394,150.94672168805664L376.95524961948394,224.70172984484822L382.9386662801107,195.31187043779977L382.9386662801107,254.00223193439402L388.92208294073737,215.8070816304121L388.92208294073737,219.6608250162528L394.90549960136417,201.03547257390096L394.90549960136417,117.46611687862759L400.88891626199086,140.65213019970304L400.88891626199086,66.30040636508056L406.8723329226176,100.43867020614368L406.8723329226176,194.39689895570044L412.8557495832443,185.87711693756953L412.8557495832443,108.37110349682877L418.8391662438711,126.37372299796408L418.8391662438711,198.87573376158514L424.8225829044978,182.86068262504185L424.8225829044978,197.8209684337307L430.8059995651245,182.41818038022365L430.8059995651245,194.5097220052628L436.7894162257512,190.9741384766537L436.7894162257512,30.960088115737904L442.772832886378,82.88508251841552L442.772832886378,125.45504948816117L448.7562495470047,149.54133496639272L448.7562495470047,6.10040600958132L454.7396662076314,70.73526019116997L454.7396662076314,73.90931997361776L460.7230828682582,108.65462163314334L460.7230828682582,140.91677295699785L466.7064995288849,158.81836904769474L466.7064995288849,11.666626458362543L472.6899161895116,76.62058508838669L472.6899161895116,36.71110808981524L478.6733328501383,82.51749738477992L478.6733328501383,186.3256081025821L484.6567495107651,176.104394510522L484.6567495107651,181.38663668342502L490.6401661713918,169.3228145409458L490.6401661713918,238.40879839628164L496.62358283201854,212.6658882511381L496.62358283201854,118.33828998746606L502.60699949264523,134.72857331246482L502.60699949264523,165.89595776460752L508.59041615327203,160.8886355586313L508.59041615327203,219.5846812979855L514.5738328138988,201.37141799216045L514.5738328138988,111.56160783207946L520.5572494745254,130.47220706733842L520.5572494745254,166.38788309910868L526.5406661351522,161.95067238197097L526.5406661351522,207.95181059414702L532.5240827957789,194.9435464290147L532.5240827957789,98.87525610266755L538.5074994564056,122.86039602969129L538.5074994564056,161.82079647652037L544.4909161170324,166.3314554500615L544.4909161170324,96.64370660432394L550.4743327776591,120.71520440205256L550.4743327776591,173.433853551799L556.4577494382859,169.25311558508537L556.4577494382859,163.13546588012017L562.4411660989125,159.99922205057783L562.4411660989125,206.78094039531112L568.4245827595392,184.63581788146598L568.4245827595392,246.37390772139912L574.407999420166,222.09264990633554L574.407999420166,49.631194973547L580.3914160807927,92.50769742358642L580.3914160807927,156.50934936471933L586.3748327414195,160.98062620425273L586.3748327414195,128.05653958146743L592.3582494020462,140.55952306886564L592.3582494020462,169.39452761844805L598.341666062673,165.17195893915957L598.341666062673,187.20773422220142L604.3250827232997,179.39965711874197L604.3250827232997,139.107958130161L610.3084993839263,144.81583577796337L610.3084993839263,209.94100142958476L616.2919160445531,195.2035784219001L616.2919160445531,113.9669803874271L622.2753327051798,133.57299168646225L622.2753327051798,141.72739154094634L628.2587493658066,151.2466118463474L628.2587493658066,136.05353549497434L634.2421660264333,150.87109886113387L634.2421660264333,87.36749265096739L640.2255826870601,115.9557379586712L640.2255826870601,157.67800163390834L646.2089993476868,158.9158306293177L646.2089993476868,171.07349835470245L652.1924160083134,172.26470822619063L652.1924160083134,94.09758197249755L658.1758326689402,125.69752674764777L658.1758326689402,72.26334938287573L664.1592493295669,106.89325199781621L664.1592493295669,152.24051005739537L670.1426659901937,152.695366934304L670.1426659901937,214.66872012338914L676.1260826508204,189.45965846112884L676.1260826508204,247.80949190869154L682.1094993114472,217.9246727093642L682.1094993114472,127.59963695990558L688.0929159720739,146.73224224846982L688.0929159720739,69.94847359434061L694.0763326327007,111.58969336997347L694.0763326327007,57.692573058767266L700.0597492933273,104.78800390778684L700.0597492933273,44.78193058993088L706.043165953954,90.40440072204927L706.043165953954,142.3471992919352L712.0265826145808,149.7173492241338L712.0265826145808,165.55440951159213L718.0099992752075,173.60095098045133L718.0099992752075,20.536175618016443L723.9934159358343,72.81253790170075L723.9934159358343,180.50263241273458L729.9768325964609,171.03055988709897L729.9768325964609,203.62306684282683L735.9602492570876,186.48286975466883L735.9602492570876,187.61372182991312L741.9436659177145,173.1354867422272L741.9436659177145,239.47370903785585L747.9270825783412,205.03528632258033L747.9270825783412,246.0726717563549L753.9104992389679,211.36920237379812L753.9104992389679,211.88033520140752L759.8939158995946,194.20321770626563L759.8939158995946,147.99009448267518L765.8773325602214,153.9868601436111L765.8773325602214,153.9757126152356L771.8607492208481,156.69445721811408L771.8607492208481,169.7406743079803L777.8441658814747,162.33523711567898L777.8441658814747,234.21625194112153L783.8275825421015,204.25535048465812L783.8275825421015,207.6120240679235L789.8109992027283,187.2961948802123L789.8109992027283,213.38244783869482L795.7944158633551,191.75506802320209L795.7944158633551,200.1118545910499L801.7778325239817,184.3761424036026L801.7778325239817,186.3496854192734L807.7612491846085,178.8848278369852L807.7612491846085,138.79906056110687L813.7446658452352,146.00841677612232L813.7446658452352,188.60978097624087L819.7280825058618,187.43417385924062L819.7280825058618,28.836109345290026L825.7114991664886,79.41960812967977L825.7114991664886,158.43317204277227L831.6949158271154,157.17784574816912L831.6949158271154,205.0881146138659L837.6783324877422,192.67347798168868L837.6783324877422,106.34284382579636L843.6617491483688,128.11473594445053L843.6617491483688,152.59284154378216L849.6451658089956,155.2813042462545L849.6451658089956,178.22759632488132L855.6285824696223,181.20486306842483L855.6285824696223,25.098522870800537L861.611999130249,80.25191717648636L861.611999130249,109.73474683496073L867.5954157908757,131.03365155498247L867.5954157908757,140.20378746205847L873.5788324515024,145.47333337710185L873.5788324515024,210.3354999890678L879.5622491121293,195.44027755758998L879.5622491121293,114.10899986884101L885.545665772756,129.81646082117138L885.545665772756,200.94137645550956L891.5290824333827,181.05565840419655L891.5290824333827,245.44850471423212L897.5124990940094,216.88971204190838L897.5124990940094,120.87258426192824L903.4959157546361,134.64149307966267L903.4959157546361,191.566303012762L909.4793324152628,179.24881145662994L909.4793324152628,183.27328685108978L915.4627490758895,173.68957143063906L915.4627490758895,189.27255663551207L921.4461657365164,183.18414319467635L921.4461657365164,100.64924295358901L927.4295823971431,120.95679941643272L927.4295823971431,208.16649664237917L933.4129990577698,188.3056404552032L933.4129990577698,203.1599603111275L939.3964157183965,191.13495375082576L939.3964157183965,111.52580558478252L945.3798323790232,130.32122582064517L945.3798323790232,168.36931153039268L951.36324903965,171.19404699076213L951.36324903965,84.62555643971598L957.3466657002766,115.96813731783556L957.3466657002766,131.16447891977032L963.3300823609034,148.87114742438868L963.3300823609034,71.23181669989191L969.3134990215302,103.22992255082596L969.3134990215302,198.75306320220974L975.296915682157,179.81909156560513L975.296915682157,243.48387193188265L981.2803323427836,211.28312661313558L981.2803323427836,188.3534724969503L987.2637490034103,173.502916029061L987.2637490034103,240.91685928915078L993.2471656640371,210.76029249527008L993.2471656640371,171.76174388432796L999.2305823246637,166.59228869868753L999.2305823246637,188.05993207791815L1005.2139989852905,173.49438563384626L1005.2139989852905,238.23032821232198L1011.1974156459173,206.47343929548396L1011.1974156459173,211.988622435996L1017.1808323065441,187.85159984869298L1017.1808323065441,246.84465674123L1023.1642489671707,209.4578549446048L1023.1642489671707,248.7262129295696L1029.1476656277976,209.80298140202103L1029.1476656277976,261.4742058337322L1035.131082288424,226.50513271360845L1035.131082288424,126.64183666494827L1041.1144989490508,145.6057112123381L1041.1144989490508,78.10218376418601L1047.0979156096776,116.48191947188076L1047.0979156096776,60.6279087199116L1053.0813322703043,98.49468775445268L1053.0813322703043,169.87821981763605L1059.064748930931,166.23596153955435L1059.064748930931,175.46557690084444L1065.0481655915578,168.8145885085974L1065.0481655915578,189.39331196386405L1071.0315822521845,177.17122954640922L1071.0315822521845,194.40729658655115L1077.0149989128113,180.95340760090343L1077.0149989128113,184.2960445376539L1082.998415573438,172.69556924509808L1082.998415573438,214.39874871202323L1088.9818322340648,198.81170929974044L1088.9818322340648,101.19615382510301L1094.9652488946915,129.95666985921108L1094.9652488946915,74.81883524981367L1100.9486655553183,108.2970436196639L1100.9486655553183,155.15480220980393L1106.932082215945,162.71349053925152L1106.932082215945,88.36685136033407L1112.9154988765717,117.32914046517311L1112.9154988765717,146.12148425621572L1118.8989155371985,154.74790713915058L1118.8989155371985,124.31690814240613L1124.882332197825,138.31574420542887L1124.882332197825,168.04826030038598L1130.8657488584518,175.09726145372767L1130.8657488584518,21.433961901982286L1136.8491655190785,79.070554062969L1136.8491655190785,92.7479008249473L1142.8325821797052,129.91704576846442L1142.8325821797052,-5.674167509175618L1148.815998840332,57.25392588159002L1148.815998840332,168.48605236096824L1154.7994155009587,167.30180833836053L1154.7994155009587,145.68665339018216L1160.7828321615855,150.1409724735675L1160.7828321615855,191.08931439470797L1166.7662488222122,179.8463920908308L1166.7662488222122,169.4914317835674L1172.749665482839,164.42383950959868L1172.749665482839,199.65903461632664L1178.7330821434657,183.52102008978122L1178.7330821434657,195.17142583099735L1184.7164988040925,191.37116077209447L1184.7164988040925,31.19830149300236L1190.6999154647192,83.02801054477419L1190.6999154647192,125.54080630397635L1196.683332125346,138.73022625216151L1196.683332125346,173.4147117893025L1202.6667487859727,166.16676959608722L1202.6667487859727,210.48146892261676L1208.6501654465994,188.4068238760758L1208.6501654465994,223.8255014906099L1214.633582107226,203.91591010773507L1214.633582107226,113.08830310142417L1220.6169987678527,132.1620115098272L1220.6169987678527,155.02120688300815L1226.6004154284794,153.5035566606957L1226.6004154284794,228.91724366813156L1232.5838320891062,201.07594552086414L1232.5838320891062,205.70438108964711L1238.567248749733,183.98988229806756L1238.567248749733,245.9863463713601L1244.5506654103597,208.15906146709537L1244.5506654103597,260.4878538727768L1250.5340820709864,217.64377322353286L1250.5340820709864,253.6377638969264L1256.5174987316132,222.3551184106823L1256.5174987316132,115.32219929166814L1262.50091539224,132.9189188949861L1262.50091539224,164.81016511412028L1268.4843320528666,168.50670828184133L1268.4843320528666,91.84278200588795L1274.4677487134934,125.27812927605927L1274.4677487134934,57.07600581089429L1280.4511653741201,96.3635460090423L1280.4511653741201,168.59953477038982L1286.4345820347469,162.51078176210063L1286.4345820347469,220.5579690200671L1292.4179986953736,199.40979799746142L1292.4179986953736,151.11404265739262L1298.4014153560004,152.78636811694133L1298.4014153560004,202.45322803512923L1304.384832016627,191.644396893604L1304.384832016627,96.89576638142114L1310.3682486772536,118.70471347313196L1310.3682486772536,206.81524507639875" fill="none"></path></g></g></g></g><g opacity="0.2"><g><g><g><path style="fill: none;" stroke="rgb(0, 119, 187)" stroke-width="2px" d="M119.66833321253458,99.76527734125176L119.66833321253458,-64.6173725552751L125.65174987316131,75.96749890296257L125.65174987316131,343.39162617405873L131.63516653378804,77.05173614338645L131.63516653378804,333.6967564403449L137.61858319441478,105.44901772292042L137.61858319441478,-116.24277218682727L143.6019998550415,76.21794185182426L143.6019998550415,343.9444529017407L149.58541651566824,81.15922994107638L149.58541651566824,283.6052916611825L155.56883317629496,116.55426401310854L155.56883317629496,-221.15111749083985L161.5522498369217,81.91888996032395L161.5522498369217,336.67268939804336L167.53566649754842,118.13440349266546L167.53566649754842,-247.55123080122405L173.51908315817516,82.44550282012915L173.51908315817516,347.0663859590715L179.50249981880188,122.62958831617078L179.50249981880188,-218.49082172902558L185.48591647942862,86.27637535666366L185.48591647942862,347.0656129818312L191.46933314005534,90.69421003759419L191.46933314005534,338.7183701749363L197.45274980068208,114.54695917044847L197.45274980068208,-40.38768957665707L203.4361664613088,93.18983819707813L203.4361664613088,337.46880064847153L209.41958312193555,125.17657636852408L209.41958312193555,-172.10653837127916L215.40299978256226,121.29701442787439L215.40299978256226,-91.54503903840606L221.386416443189,97.70399853574469L221.386416443189,322.28665599293026L227.3698331038157,132.87649814702138L227.3698331038157,-199.91264520443872L233.35324976444244,126.44505852672211L233.35324976444244,-77.46479305111399L239.33666642506915,101.3500243542224L239.33666642506915,346.93683013296976L245.3200830856959,104.94134276575869L245.3200830856959,298.4481596534881L251.30349974632261,106.94343827472244L251.30349974632261,298.28904930064255L257.2869164069494,127.05891362124754L257.2869164069494,19.7735324259437L263.2703330675761,111.42963370650625L263.2703330675761,297.0355416260393L269.2537497282028,110.67294507615406L269.2537497282028,326.70340461241335L275.23716638882956,138.834791101374L275.23716638882956,-100.0755956569817L281.22058304945625,111.9720250174712L281.22058304945625,346.451320078197L287.203999710083,143.61914096067554L287.203999710083,-124.54513366073917L293.18741637070974,147.38767074918294L293.18741637070974,-133.5345629948083L299.1708330313365,118.87851073585921L299.1708330313365,346.22751832536693L305.1542496919632,140.21413615538486L305.1542496919632,9.140022332289902L311.1376663525899,119.59984359960777L311.1376663525899,344.0631330304239L317.12108301321666,124.71420568888797L317.12108301321666,310.0513698189337L323.1044996738434,151.83867967069264L323.1044996738434,-102.53872660120447L329.0879163344701,126.994050834537L329.0879163344701,311.53064428002915L335.07133299509684,125.06968159332473L335.07133299509684,344.32233998974897L341.0547496557236,156.0206650596149L341.0547496557236,-147.34745920654893L347.0381663163503,131.61732508694507L347.0381663163503,312.52976909454543L353.021582976977,146.29886358786297L353.021582976977,55.25249883114168L359.00499963760376,130.41594366025856L359.00499963760376,344.91456230350985L364.98841629823045,162.6487241159996L364.98841629823045,-152.19492287048968L370.97183295885725,164.22670087579087L370.97183295885725,-148.7492025148283L376.95524961948394,154.8548274621203L376.95524961948394,33.97378115084075L382.9386662801107,137.15306021160828L382.9386662801107,342.50801586593815L388.92208294073737,138.86194733912697L388.92208294073737,342.9401208104626L394.90549960136417,162.3392483206652L394.90549960136417,-13.936912204980331L400.88891626199086,159.28059838427788L400.88891626199086,37.41288170339334L406.8723329226176,140.95041999490465L406.8723329226176,343.6811256086447L412.8557495832443,169.81753833883093L412.8557495832443,-67.24859384093554L418.8391662438711,143.72562199818063L418.8391662438711,346.36357771453095L424.8225829044978,170.63726554878698L424.8225829044978,-66.69016079118711L430.8059995651245,175.73127926601126L430.8059995651245,-118.21513500057802L436.7894162257512,148.28440958905477L436.7894162257512,345.71576314465824L442.772832886378,174.14463282089858L442.772832886378,-31.015139137668655L448.7562495470047,151.00883469348517L448.7562495470047,340.9395209867716L454.7396662076314,151.5925433551034L454.7396662076314,346.83824700792L460.7230828682582,153.65596607411726L460.7230828682582,321.8311472469854L466.7064995288849,154.4536335424637L466.7064995288849,338.76452602336957L472.6899161895116,172.96677802401052L472.6899161895116,58.806129499979306L478.6733328501383,155.5143253468303L478.6733328501383,339.71768246434533L484.6567495107651,179.05650792133787L484.6567495107651,-18.64460775328388L490.6401661713918,156.57042842404195L490.6401661713918,346.91034205000443L496.62358283201854,158.26585027023714L496.62358283201854,344.3915608330959L502.60699949264523,182.65508554878323L502.60699949264523,-37.872277232882254L508.59041615327203,159.95472753835892L508.59041615327203,346.18272115567225L514.5738328138988,159.9134666064822L514.5738328138988,347.0351899750182L520.5572494745254,160.6991921004705L520.5572494745254,347.0662456965374L526.5406661351522,164.52982015564018L526.5406661351522,326.4686343295055L532.5240827957789,163.0697774449825L532.5240827957789,338.2043375268983L538.5074994564056,163.90947690181778L538.5074994564056,347.04339067926L544.4909161170324,189.81517366751663L544.4909161170324,-87.31310422602672L550.4743327776591,188.10848687228125L550.4743327776591,-32.520692994699004L556.4577494382859,166.13405045276048L556.4577494382859,337.2768486907499L562.4411660989125,187.18453537587993L562.4411660989125,30.30285584566991L568.4245827595392,182.5393142194153L568.4245827595392,112.26982212607118L574.407999420166,170.39976130600147L574.407999420166,331.66885286730826L580.3914160807927,170.54297096700483L580.3914160807927,346.71891503300174L586.3748327414195,170.95142410257048L586.3748327414195,334.8275391713772L592.3582494020462,195.53602820098965L592.3582494020462,-52.9852877301758L598.341666062673,193.7394192791505L598.341666062673,-12.219449423434412L604.3250827232997,171.2789351001245L604.3250827232997,346.6365415256534L610.3084993839263,174.57621765482722L610.3084993839263,333.13153903272297L616.2919160445531,175.11857135327455L616.2919160445531,333.089645740393L622.2753327051798,195.87645909836104L622.2753327051798,20.069166814777986L628.2587493658066,176.4953587560843L628.2587493658066,329.66412800828164L634.2421660264333,196.3600902536064L634.2421660264333,19.136301151690475L640.2255826870601,190.37663452493697L640.2255826870601,126.14936771911132L646.2089993476868,196.16972389858253L646.2089993476868,49.57391136439293L652.1924160083134,180.10621687054675L652.1924160083134,338.8570957185995L658.1758326689402,178.88661217905232L658.1758326689402,345.93575560160764L664.1592493295669,181.89491776054717L664.1592493295669,346.05274390161543L670.1426659901937,181.96060802264628L670.1426659901937,332.32206240922136L676.1260826508204,183.09848071325817L676.1260826508204,342.43023905636613L682.1094993114472,203.53683131453528L682.1094993114472,6.9113302106630385L688.0929159720739,184.564428589189L688.0929159720739,346.110373037175L694.0763326327007,195.71484751309086L694.0763326327007,141.3672983344269L700.0597492933273,187.0429430531361L700.0597492933273,329.6154961983341L706.043165953954,186.17928442254922L706.043165953954,327.4883578743984L712.0265826145808,184.73075114229653L712.0265826145808,345.98587817487737L718.0099992752075,207.8271783668458L718.0099992752075,-0.5073251607473708L723.9934159358343,189.80709637934842L723.9934159358343,302.4301404797353L729.9768325964609,188.9873221537453L729.9768325964609,336.6052948187376L735.9602492570876,190.09967475112256L735.9602492570876,336.05008116542297L741.9436659177145,210.05816485205008L741.9436659177145,-18.567577317109283L747.9270825783412,202.5883376503586L747.9270825783412,149.92200218934252L753.9104992389679,190.14055015469324L753.9104992389679,338.4524802352267L759.8939158995946,190.5749841368349L759.8939158995946,344.54175995773323L765.8773325602214,192.11243340884383L765.8773325602214,339.41652608776155L771.8607492208481,191.80845844421768L771.8607492208481,346.7572606641808L777.8441658814747,193.11595418636205L777.8441658814747,325.8195151488883L783.8275825421015,193.43766345306648L783.8275825421015,343.98917800526385L789.8109992027283,195.40419632657944L789.8109992027283,324.73904386179544L795.7944158633551,207.81833002206548L795.7944158633551,136.04275749644367L801.7778325239817,213.64357809831324L801.7778325239817,34.20265332082255L807.7612491846085,196.758547862603L807.7612491846085,338.2998198414648L813.7446658452352,194.83344517729626L813.7446658452352,344.2594659649099L819.7280825058618,213.42648804948954L819.7280825058618,64.24232309664637L825.7114991664886,217.49399974090326L825.7114991664886,29.148038715850703L831.6949158271154,199.65127958044764L831.6949158271154,308.73725897524525L837.6783324877422,220.41856105182057L837.6783324877422,-1.4828434188652295L843.6617491483688,201.44761581153375L843.6617491483688,314.04198036720226L849.6451658089956,201.5110211131848L849.6451658089956,314.366574043855L855.6285824696223,219.49633032810235L855.6285824696223,41.6257657755761L861.611999130249,201.33798472567435L861.611999130249,311.91834235819164L867.5954157908757,201.23243459798147L867.5954157908757,347.05794012694236L873.5788324515024,201.0970671469109L873.5788324515024,340.50968219643636L879.5622491121293,213.44436339850907L879.5622491121293,168.5504102312688L885.545665772756,203.18932926384318L885.545665772756,347.04060176984484L891.5290824333827,214.92423730910477L891.5290824333827,172.46391746910976L897.5124990940094,221.64708931313064L897.5124990940094,49.41734925961907L903.4959157546361,205.2355724654143L903.4959157546361,317.39146204407473L909.4793324152628,223.07048802845475L909.4793324152628,55.13962366563385L915.4627490758895,223.66461535746575L915.4627490758895,57.24823782462033L921.4461657365164,227.03464052132946L921.4461657365164,11.967994697847587L927.4295823971431,207.43663819281736L927.4295823971431,328.2423842437347L933.4129990577698,208.55814943824564L933.4129990577698,326.26237668576886L939.3964157183965,209.14535606400656L939.3964157183965,346.83344272504246L945.3798323790232,207.2421344608505L945.3798323790232,344.559195122757L951.36324903965,229.02170982948664L951.36324903965,32.90658238091845L957.3466657002766,208.99909978907246L957.3466657002766,343.6544001517581L963.3300823609034,212.21673783762293L963.3300823609034,324.5835019965632L969.3134990215302,210.17302407786468L969.3134990215302,338.7762940398335L975.296915682157,230.1027311996503L975.296915682157,24.31577050904599L981.2803323427836,228.42936909506466L981.2803323427836,70.36020596344474L987.2637490034103,213.02934687861116L987.2637490034103,320.676727399384L993.2471656640371,211.6968106028324L993.2471656640371,323.4929388008248L999.2305823246637,213.68053239691753L999.2305823246637,330.1675927142474L1005.2139989852905,212.70072631178607L1005.2139989852905,346.2054136250448L1011.1974156459173,223.56418993530448L1011.1974156459173,190.20905195248773L1017.1808323065441,230.25684849077606L1017.1808323065441,78.2227266558009L1023.1642489671707,216.26697598029972L1023.1642489671707,308.609138986172L1029.1476656277976,232.75163036861258L1029.1476656277976,67.01336891672054L1035.131082288424,225.15938382505615L1035.131082288424,196.40698366000322L1041.1144989490508,218.23258734712994L1041.1144989490508,306.76454119335904L1047.0979156096776,216.93231320837697L1047.0979156096776,324.89746778619366L1053.0813322703043,219.00916359619666L1053.0813322703043,307.7253741141117L1059.064748930931,231.67863927097005L1059.064748930931,133.54837055004262L1065.0481655915578,233.67386109233075L1065.0481655915578,83.87632060456241L1071.0315822521845,230.6530211393246L1071.0315822521845,137.2381585328217L1077.0149989128113,219.04975690588486L1077.0149989128113,325.49326887224066L1082.998415573438,221.80875731717734L1082.998415573438,306.4851413074612L1088.9818322340648,235.4768547390433L1088.9818322340648,78.18908225875106L1094.9652488946915,222.03226030026264L1094.9652488946915,304.6523115311122L1100.9486655553183,220.7924764930418L1100.9486655553183,325.8833553452748L1106.932082215945,221.23482791015158L1106.932082215945,318.1552782465241L1112.9154988765717,233.73342051405075L1112.9154988765717,134.70486143689786L1118.8989155371985,221.20334623286732L1118.8989155371985,344.45495026696614L1124.882332197825,237.53749413175007L1124.882332197825,89.77638938157202L1130.8657488584518,224.3610581376506L1130.8657488584518,301.41182857964594L1136.8491655190785,223.14755607714704L1136.8491655190785,324.7689481641202L1142.8325821797052,222.2417996361654L1142.8325821797052,344.56161084547347L1148.815998840332,236.4807234323499L1148.815998840332,123.10047823105765L1154.7994155009587,223.70374177896508L1154.7994155009587,330.3680039622697L1160.7828321615855,230.57936642661025L1160.7828321615855,207.49690284924353L1166.7662488222122,235.37176536469175L1166.7662488222122,147.09720808152738L1172.749665482839,223.8777654950642L1172.749665482839,330.31343172531365L1178.7330821434657,242.73997294678617L1178.7330821434657,71.27545016200702L1184.7164988040925,242.10603276782848L1184.7164988040925,67.01940572580554L1190.6999154647192,225.95901654745052L1190.6999154647192,332.1565837869789L1196.683332125346,242.39319493705906L1196.683332125346,75.13267026716466L1202.6667487859727,225.1329046126211L1202.6667487859727,347.044935988079L1208.6501654465994,225.7051226500932L1208.6501654465994,330.1863813422114L1214.633582107226,243.37632973000373L1214.633582107226,66.58864836726548L1220.6169987678527,229.49089777794924L1220.6169987678527,312.92364973029885L1226.6004154284794,235.61596463562134L1226.6004154284794,219.14722034228015L1232.5838320891062,243.9626054459525L1232.5838320891062,78.61502521503013L1238.567248749733,242.32375282632304L1238.567248749733,109.8732089193361L1244.5506654103597,245.6554696409466L1244.5506654103597,71.31641019374246L1250.5340820709864,232.6689956673061L1250.5340820709864,290.2069514317322L1256.5174987316132,246.07175558331562L1256.5174987316132,80.13994951865715L1262.50091539224,230.95705252272722L1262.50091539224,292.40585914093435L1268.4843320528666,232.46977156437248L1268.4843320528666,289.1384550299505L1274.4677487134934,243.247629097689L1274.4677487134934,143.56302308432177L1280.4511653741201,239.85486716689778L1280.4511653741201,202.83910970874987L1286.4345820347469,232.2953529168379L1286.4345820347469,327.5377713194787L1292.4179986953736,238.60584008346115L1292.4179986953736,222.39933026326912L1298.4014153560004,238.53191267999372L1298.4014153560004,219.7251178699194L1304.384832016627,239.40037630971213L1304.384832016627,223.13711860349545L1310.3682486772536,239.76442786817614L1310.3682486772536,229.5565410244013" fill="none"></path></g><g><path style="fill: none;" stroke="rgb(0, 153, 136)" stroke-width="2px" d="M119.66833321253458,151.41813411069822L119.66833321253458,338.9810424812989L125.65174987316131,151.6460659677384L125.65174987316131,335.33424208003555L131.63516653378804,158.5143561744392L131.63516653378804,225.44144009501395L137.61858319441478,175.43115018131618L137.61858319441478,-45.22717938685315L143.6019998550415,155.2948563062644L143.6019998550415,276.95351791241103L149.58541651566824,185.6707631837401L149.58541651566824,-209.06098742563574L155.56883317629496,165.5254423044491L155.56883317629496,113.26392096791471L161.5522498369217,162.98200863501495L161.5522498369217,153.9589913226724L167.53566649754842,165.5254423044491L167.53566649754842,113.26392096791471L173.51908315817516,151.227081327227L173.51908315817516,342.0377741792854L179.50249981880188,158.5143561744392L179.50249981880188,225.44144009501395L185.48591647942862,151.6460659677384L185.48591647942862,335.33424208003555L191.46933314005534,155.2948563062644L191.46933314005534,276.95351791241103L197.45274980068208,158.5143561744392L197.45274980068208,225.44144009501395L203.4361664613088,153.37765224966697L203.4361664613088,307.62874990701675L209.41958312193555,155.2948563062644L209.41958312193555,276.95351791241103L215.40299978256226,175.43115018131618L215.40299978256226,-45.22717938685315L221.386416443189,174.05152303342285L221.386416443189,-23.153107408042047L227.3698331038157,167.68754146355286L227.3698331038157,78.67040964728949L233.35324976444244,151.6460659677384L233.35324976444244,335.33424208003555L239.33666642506915,158.83810592022687L239.33666642506915,220.26139714676407L245.3200830856959,174.05152303342285L245.3200830856959,-23.153107408042047L251.30349974632261,175.43115018131618L251.30349974632261,-45.22717938685315L257.2869164069494,174.05152303342285L257.2869164069494,-23.153107408042047L263.2703330675761,159.31399829996298L263.2703330675761,212.6470344428216L269.2537497282028,173.09744391037316L269.2537497282028,-7.887916664282443L275.23716638882956,158.83810592022687L275.23716638882956,220.26139714676407L281.22058304945625,153.37765224966697L281.22058304945625,307.62874990701675L287.203999710083,175.43115018131618L287.203999710083,-45.22717938685315L293.18741637070974,167.68754146355286L293.18741637070974,78.67040964728949L299.1708330313365,158.5143561744392L299.1708330313365,225.44144009501395L305.1542496919632,162.98200863501495L305.1542496919632,153.9589913226724L311.1376663525899,153.37765224966697L311.1376663525899,307.62874990701675L317.12108301321666,162.98200863501495L317.12108301321666,153.9589913226724L323.1044996738434,151.41813411069822L323.1044996738434,338.9810424812989L329.0879163344701,160.7725741224318L329.0879163344701,189.30999994277957L335.07133299509684,158.83810592022687L335.07133299509684,220.26139714676407L341.0547496557236,159.31399829996298L341.0547496557236,212.6470344428216L347.0381663163503,153.37765224966697L347.0381663163503,307.62874990701675L353.021582976977,175.43115018131618L353.021582976977,-45.22717938685315L359.00499963760376,185.6707631837401L359.00499963760376,-209.06098742563574L364.98841629823045,162.98200863501495L364.98841629823045,153.9589913226724L370.97183295885725,160.7725741224318L370.97183295885725,189.30999994277957L376.95524961948394,151.6460659677384L376.95524961948394,335.33424208003555L382.9386662801107,151.227081327227L382.9386662801107,342.0377741792854L388.92208294073737,158.5143561744392L388.92208294073737,225.44144009501395L394.90549960136417,173.09744391037316L394.90549960136417,-7.887916664282443L400.88891626199086,175.43115018131618L400.88891626199086,-45.22717938685315L406.8723329226176,151.6460659677384L406.8723329226176,335.33424208003555L412.8557495832443,173.09744391037316L412.8557495832443,-7.887916664282443L418.8391662438711,153.37765224966697L418.8391662438711,307.62874990701675L424.8225829044978,158.83810592022687L424.8225829044978,220.26139714676407L430.8059995651245,159.31399829996298L430.8059995651245,212.6470344428216L436.7894162257512,185.6707631837401L436.7894162257512,-209.06098742563574L442.772832886378,160.7725741224318L442.772832886378,189.30999994277957L448.7562495470047,185.6707631837401L448.7562495470047,-209.06098742563574L454.7396662076314,167.68754146355286L454.7396662076314,78.67040964728949L460.7230828682582,160.7725741224318L460.7230828682582,189.30999994277957L466.7064995288849,185.6707631837401L466.7064995288849,-209.06098742563574L472.6899161895116,174.05152303342285L472.6899161895116,-23.153107408042047L478.6733328501383,151.227081327227L478.6733328501383,342.0377741792854L484.6567495107651,160.7725741224318L484.6567495107651,189.30999994277957L490.6401661713918,151.227081327227L490.6401661713918,342.0377741792854L496.62358283201854,174.05152303342285L496.62358283201854,-23.153107408042047L502.60699949264523,159.31399829996298L502.60699949264523,212.6470344428216L508.59041615327203,153.37765224966697L508.59041615327203,307.62874990701675L514.5738328138988,174.05152303342285L514.5738328138988,-23.153107408042047L520.5572494745254,158.83810592022687L520.5572494745254,220.26139714676407L526.5406661351522,155.2948563062644L526.5406661351522,276.95351791241103L532.5240827957789,175.43115018131618L532.5240827957789,-45.22717938685315L538.5074994564056,158.83810592022687L538.5074994564056,220.26139714676407L544.4909161170324,173.09744391037316L544.4909161170324,-7.887916664282443L550.4743327776591,156.82245109864553L550.4743327776591,252.51182727641867L556.4577494382859,162.98200863501495L556.4577494382859,153.9589913226724L562.4411660989125,155.2948563062644L562.4411660989125,276.95351791241103L568.4245827595392,151.41813411069822L568.4245827595392,338.9810424812989L574.407999420166,185.6707631837401L574.407999420166,-209.06098742563574L580.3914160807927,156.82245109864553L580.3914160807927,252.51182727641867L586.3748327414195,167.68754146355286L586.3748327414195,78.67040964728949L592.3582494020462,159.31399829996298L592.3582494020462,212.6470344428216L598.341666062673,158.83810592022687L598.341666062673,220.26139714676407L604.3250827232997,167.68754146355286L604.3250827232997,78.67040964728949L610.3084993839263,153.37765224966697L610.3084993839263,307.62874990701675L616.2919160445531,173.09744391037316L616.2919160445531,-7.887916664282443L622.2753327051798,162.98200863501495L622.2753327051798,153.9589913226724L628.2587493658066,165.5254423044491L628.2587493658066,113.26392096791471L634.2421660264333,173.09744391037316L634.2421660264333,-7.887916664282443L640.2255826870601,158.83810592022687L640.2255826870601,220.26139714676407L646.2089993476868,160.7725741224318L646.2089993476868,189.30999994277957L652.1924160083134,174.05152303342285L652.1924160083134,-23.153107408042047L658.1758326689402,173.09744391037316L658.1758326689402,-7.887916664282443L664.1592493295669,158.83810592022687L664.1592493295669,220.26139714676407L670.1426659901937,153.37765224966697L670.1426659901937,307.62874990701675L676.1260826508204,151.6460659677384L676.1260826508204,335.33424208003555L682.1094993114472,173.09744391037316L682.1094993114472,-7.887916664282443L688.0929159720739,175.43115018131618L688.0929159720739,-45.22717938685315L694.0763326327007,174.05152303342285L694.0763326327007,-23.153107408042047L700.0597492933273,175.43115018131618L700.0597492933273,-45.22717938685315L706.043165953954,158.83810592022687L706.043165953954,220.26139714676407L712.0265826145808,160.7725741224318L712.0265826145808,189.30999994277957L718.0099992752075,185.6707631837401L718.0099992752075,-209.06098742563574L723.9934159358343,151.227081327227L723.9934159358343,342.0377741792854L729.9768325964609,156.82245109864553L729.9768325964609,252.51182727641867L735.9602492570876,160.7725741224318L735.9602492570876,189.30999994277957L741.9436659177145,151.41813411069822L741.9436659177145,338.9810424812989L747.9270825783412,153.37765224966697L747.9270825783412,307.62874990701675L753.9104992389679,159.31399829996298L753.9104992389679,212.6470344428216L759.8939158995946,167.68754146355286L759.8939158995946,78.67040964728949L765.8773325602214,162.98200863501495L765.8773325602214,153.9589913226724L771.8607492208481,160.7725741224318L771.8607492208481,189.30999994277957L777.8441658814747,151.227081327227L777.8441658814747,342.0377741792854L783.8275825421015,159.31399829996298L783.8275825421015,212.6470344428216L789.8109992027283,156.82245109864553L789.8109992027283,252.51182727641867L795.7944158633551,159.31399829996298L795.7944158633551,212.6470344428216L801.7778325239817,160.7725741224318L801.7778325239817,189.30999994277957L807.7612491846085,167.68754146355286L807.7612491846085,78.67040964728949L813.7446658452352,156.82245109864553L813.7446658452352,252.51182727641867L819.7280825058618,185.6707631837401L819.7280825058618,-209.06098742563574L825.7114991664886,155.2948563062644L825.7114991664886,276.95351791241103L831.6949158271154,155.2948563062644L831.6949158271154,276.95351791241103L837.6783324877422,174.05152303342285L837.6783324877422,-23.153107408042047L843.6617491483688,160.7725741224318L843.6617491483688,189.30999994277957L849.6451658089956,159.31399829996298L849.6451658089956,212.6470344428216L855.6285824696223,185.6707631837401L855.6285824696223,-209.06098742563574L861.611999130249,162.98200863501495L861.611999130249,153.9589913226724L867.5954157908757,162.98200863501495L867.5954157908757,153.9589913226724L873.5788324515024,153.37765224966697L873.5788324515024,307.62874990701675L879.5622491121293,173.09744391037316L879.5622491121293,-7.887916664282443L885.545665772756,153.37765224966697L885.545665772756,307.62874990701675L891.5290824333827,151.227081327227L891.5290824333827,342.0377741792854L897.5124990940094,174.05152303342285L897.5124990940094,-23.153107408042047L903.4959157546361,155.2948563062644L903.4959157546361,276.95351791241103L909.4793324152628,160.7725741224318L909.4793324152628,189.30999994277957L915.4627490758895,159.31399829996298L915.4627490758895,212.6470344428216L921.4461657365164,174.05152303342285L921.4461657365164,-23.153107408042047L927.4295823971431,151.41813411069822L927.4295823971431,338.9810424812989L933.4129990577698,158.5143561744392L933.4129990577698,225.44144009501395L939.3964157183965,173.09744391037316L939.3964157183965,-7.887916664282443L945.3798323790232,158.5143561744392L945.3798323790232,225.44144009501395L951.36324903965,175.43115018131618L951.36324903965,-45.22717938685315L957.3466657002766,162.98200863501495L957.3466657002766,153.9589913226724L963.3300823609034,175.43115018131618L963.3300823609034,-45.22717938685315L969.3134990215302,151.227081327227L969.3134990215302,342.0377741792854L975.296915682157,151.41813411069822L975.296915682157,338.9810424812989L981.2803323427836,162.98200863501495L981.2803323427836,153.9589913226724L987.2637490034103,151.227081327227L987.2637490034103,342.0377741792854L993.2471656640371,165.5254423044491L993.2471656640371,113.26392096791471L999.2305823246637,158.83810592022687L999.2305823246637,220.26139714676407L1005.2139989852905,151.6460659677384L1005.2139989852905,335.33424208003555L1011.1974156459173,158.83810592022687L1011.1974156459173,220.26139714676407L1017.1808323065441,151.6460659677384L1017.1808323065441,335.33424208003555L1023.1642489671707,153.37765224966697L1023.1642489671707,307.62874990701675L1029.1476656277976,151.41813411069822L1029.1476656277976,338.9810424812989L1035.131082288424,174.05152303342285L1035.131082288424,-23.153107408042047L1041.1144989490508,174.05152303342285L1041.1144989490508,-23.153107408042047L1047.0979156096776,174.05152303342285L1047.0979156096776,-23.153107408042047L1053.0813322703043,155.2948563062644L1053.0813322703043,276.95351791241103L1059.064748930931,160.7725741224318L1059.064748930931,189.30999994277957L1065.0481655915578,158.83810592022687L1065.0481655915578,220.26139714676407L1071.0315822521845,158.83810592022687L1071.0315822521845,220.26139714676407L1077.0149989128113,160.7725741224318L1077.0149989128113,189.30999994277957L1082.998415573438,155.2948563062644L1082.998415573438,276.95351791241103L1088.9818322340648,175.43115018131618L1088.9818322340648,-45.22717938685315L1094.9652488946915,173.09744391037316L1094.9652488946915,-7.887916664282443L1100.9486655553183,158.5143561744392L1100.9486655553183,225.44144009501395L1106.932082215945,174.05152303342285L1106.932082215945,-23.153107408042047L1112.9154988765717,160.7725741224318L1112.9154988765717,189.30999994277957L1118.8989155371985,167.68754146355286L1118.8989155371985,78.67040964728949L1124.882332197825,159.31399829996298L1124.882332197825,212.6470344428216L1130.8657488584518,185.6707631837401L1130.8657488584518,-209.06098742563574L1136.8491655190785,165.5254423044491L1136.8491655190785,113.26392096791471L1142.8325821797052,185.6707631837401L1142.8325821797052,-209.06098742563574L1148.815998840332,151.6460659677384L1148.815998840332,335.33424208003555L1154.7994155009587,165.5254423044491L1154.7994155009587,113.26392096791471L1160.7828321615855,156.82245109864553L1160.7828321615855,252.51182727641867L1166.7662488222122,162.98200863501495L1166.7662488222122,153.9589913226724L1172.749665482839,156.82245109864553L1172.749665482839,252.51182727641867L1178.7330821434657,159.31399829996298L1178.7330821434657,212.6470344428216L1184.7164988040925,185.6707631837401L1184.7164988040925,-209.06098742563574L1190.6999154647192,160.7725741224318L1190.6999154647192,189.30999994277957L1196.683332125346,158.5143561744392L1196.683332125346,225.44144009501395L1202.6667487859727,155.2948563062644L1202.6667487859727,276.95351791241103L1208.6501654465994,155.2948563062644L1208.6501654465994,276.95351791241103L1214.633582107226,174.05152303342285L1214.633582107226,-23.153107408042047L1220.6169987678527,160.7725741224318L1220.6169987678527,189.30999994277957L1226.6004154284794,151.227081327227L1226.6004154284794,342.0377741792854L1232.5838320891062,159.31399829996298L1232.5838320891062,212.6470344428216L1238.567248749733,151.41813411069822L1238.567248749733,338.9810424812989L1244.5506654103597,151.41813411069822L1244.5506654103597,338.9810424812989L1250.5340820709864,153.37765224966697L1250.5340820709864,307.62874990701675L1256.5174987316132,175.43115018131618L1256.5174987316132,-45.22717938685315L1262.50091539224,159.31399829996298L1262.50091539224,212.6470344428216L1268.4843320528666,174.05152303342285L1268.4843320528666,-23.153107408042047L1274.4677487134934,175.43115018131618L1274.4677487134934,-45.22717938685315L1280.4511653741201,155.2948563062644L1280.4511653741201,276.95351791241103L1286.4345820347469,153.37765224966697L1286.4345820347469,307.62874990701675L1292.4179986953736,167.68754146355286L1292.4179986953736,78.67040964728949L1298.4014153560004,155.2948563062644L1298.4014153560004,276.95351791241103L1304.384832016627,175.43115018131618L1304.384832016627,-45.22717938685315L1310.3682486772536,151.41813411069822L1310.3682486772536,338.9810424812989" fill="none"></path></g></g></g></g></g></g><g transform="translate(59, 378)" clip-path="url(#clip_1)"><clipPath id="clip_1"><rect width="1436" height="21"></rect></clipPath><g><g><line x1="0" y1="0" x2="0" y2="5" style="visibility: inherit;" fill="rgb(0, 0, 0)" stroke="rgb(204, 204, 204)" stroke-width="1px"></line><line x1="119.66833321253458" y1="0" x2="119.66833321253458" y2="5" style="visibility: inherit;" fill="rgb(0, 0, 0)" stroke="rgb(204, 204, 204)" stroke-width="1px"></line><line x1="239.33666642506915" y1="0" x2="239.33666642506915" y2="5" style="visibility: inherit;" fill="rgb(0, 0, 0)" stroke="rgb(204, 204, 204)" stroke-width="1px"></line><line x1="359.00499963760376" y1="0" x2="359.00499963760376" y2="5" style="visibility: inherit;" fill="rgb(0, 0, 0)" stroke="rgb(204, 204, 204)" stroke-width="1px"></line><line x1="478.6733328501383" y1="0" x2="478.6733328501383" y2="5" style="visibility: inherit;" fill="rgb(0, 0, 0)" stroke="rgb(204, 204, 204)" stroke-width="1px"></line><line x1="598.341666062673" y1="0" x2="598.341666062673" y2="5" style="visibility: inherit;" fill="rgb(0, 0, 0)" stroke="rgb(204, 204, 204)" stroke-width="1px"></line><line x1="718.0099992752075" y1="0" x2="718.0099992752075" y2="5" style="visibility: inherit;" fill="rgb(0, 0, 0)" stroke="rgb(204, 204, 204)" stroke-width="1px"></line><line x1="837.6783324877422" y1="0" x2="837.6783324877422" y2="5" style="visibility: inherit;" fill="rgb(0, 0, 0)" stroke="rgb(204, 204, 204)" stroke-width="1px"></line><line x1="957.3466657002766" y1="0" x2="957.3466657002766" y2="5" style="visibility: inherit;" fill="rgb(0, 0, 0)" stroke="rgb(204, 204, 204)" stroke-width="1px"></line><line x1="1077.0149989128113" y1="0" x2="1077.0149989128113" y2="5" style="visibility: inherit;" fill="rgb(0, 0, 0)" stroke="rgb(204, 204, 204)" stroke-width="1px"></line><line x1="1196.683332125346" y1="0" x2="1196.683332125346" y2="5" style="visibility: inherit;" fill="rgb(0, 0, 0)" stroke="rgb(204, 204, 204)" stroke-width="1px"></line><line x1="1316.3516653378804" y1="0" x2="1316.3516653378804" y2="5" style="visibility: inherit;" fill="rgb(0, 0, 0)" stroke="rgb(204, 204, 204)" stroke-width="1px"></line><line x1="1436.019998550415" y1="0" x2="1436.019998550415" y2="5" style="visibility: inherit;" fill="rgb(0, 0, 0)" stroke="rgb(204, 204, 204)" stroke-width="1px"></line></g><g transform="translate(0, 8)"><text style="text-anchor: middle; visibility: hidden; font-family: &quot;Helvetica Neue&quot;, sans-serif; font-size: 12px; font-weight: 200;" x="0" y="0" dx="0em" dy="0.95em" fill="rgb(50, 49, 63)" stroke="none" stroke-width="1px">-20</text><text style="text-anchor: middle; visibility: inherit; font-family: &quot;Helvetica Neue&quot;, sans-serif; font-size: 12px; font-weight: 200;" x="119.66833321253458" y="0" dx="0em" dy="0.95em" fill="rgb(50, 49, 63)" stroke="none" stroke-width="1px">0</text><text style="text-anchor: middle; visibility: inherit; font-family: &quot;Helvetica Neue&quot;, sans-serif; font-size: 12px; font-weight: 200;" x="239.33666642506915" y="0" dx="0em" dy="0.95em" fill="rgb(50, 49, 63)" stroke="none" stroke-width="1px">20</text><text style="text-anchor: middle; visibility: inherit; font-family: &quot;Helvetica Neue&quot;, sans-serif; font-size: 12px; font-weight: 200;" x="359.00499963760376" y="0" dx="0em" dy="0.95em" fill="rgb(50, 49, 63)" stroke="none" stroke-width="1px">40</text><text style="text-anchor: middle; visibility: inherit; font-family: &quot;Helvetica Neue&quot;, sans-serif; font-size: 12px; font-weight: 200;" x="478.6733328501383" y="0" dx="0em" dy="0.95em" fill="rgb(50, 49, 63)" stroke="none" stroke-width="1px">60</text><text style="text-anchor: middle; visibility: inherit; font-family: &quot;Helvetica Neue&quot;, sans-serif; font-size: 12px; font-weight: 200;" x="598.341666062673" y="0" dx="0em" dy="0.95em" fill="rgb(50, 49, 63)" stroke="none" stroke-width="1px">80</text><text style="text-anchor: middle; visibility: inherit; font-family: &quot;Helvetica Neue&quot;, sans-serif; font-size: 12px; font-weight: 200;" x="718.0099992752075" y="0" dx="0em" dy="0.95em" fill="rgb(50, 49, 63)" stroke="none" stroke-width="1px">100</text><text style="text-anchor: middle; visibility: inherit; font-family: &quot;Helvetica Neue&quot;, sans-serif; font-size: 12px; font-weight: 200;" x="837.6783324877422" y="0" dx="0em" dy="0.95em" fill="rgb(50, 49, 63)" stroke="none" stroke-width="1px">120</text><text style="text-anchor: middle; visibility: inherit; font-family: &quot;Helvetica Neue&quot;, sans-serif; font-size: 12px; font-weight: 200;" x="957.3466657002766" y="0" dx="0em" dy="0.95em" fill="rgb(50, 49, 63)" stroke="none" stroke-width="1px">140</text><text style="text-anchor: middle; visibility: inherit; font-family: &quot;Helvetica Neue&quot;, sans-serif; font-size: 12px; font-weight: 200;" x="1077.0149989128113" y="0" dx="0em" dy="0.95em" fill="rgb(50, 49, 63)" stroke="none" stroke-width="1px">160</text><text style="text-anchor: middle; visibility: inherit; font-family: &quot;Helvetica Neue&quot;, sans-serif; font-size: 12px; font-weight: 200;" x="1196.683332125346" y="0" dx="0em" dy="0.95em" fill="rgb(50, 49, 63)" stroke="none" stroke-width="1px">180</text><text style="text-anchor: middle; visibility: inherit; font-family: &quot;Helvetica Neue&quot;, sans-serif; font-size: 12px; font-weight: 200;" x="1316.3516653378804" y="0" dx="0em" dy="0.95em" fill="rgb(50, 49, 63)" stroke="none" stroke-width="1px">200</text><text style="text-anchor: middle; visibility: hidden; font-family: &quot;Helvetica Neue&quot;, sans-serif; font-size: 12px; font-weight: 200;" x="1436.019998550415" y="0" dx="0em" dy="0.95em" fill="rgb(50, 49, 63)" stroke="none" stroke-width="1px">220</text></g><line x1="0" y1="0" x2="1436.019998550415" y2="0" fill="rgb(0, 0, 0)" stroke="rgb(204, 204, 204)" stroke-width="1px"></line></g></g></g></g></svg>